<?xml version="1.0" encoding="UTF-8" standalone="no"?>
<!-- Created with Inkscape (http://www.inkscape.org/) -->

<svg
   xmlns:dc="http://purl.org/dc/elements/1.1/"
   xmlns:cc="http://creativecommons.org/ns#"
   xmlns:rdf="http://www.w3.org/1999/02/22-rdf-syntax-ns#"
   xmlns:svg="http://www.w3.org/2000/svg"
   xmlns="http://www.w3.org/2000/svg"
   xmlns:xlink="http://www.w3.org/1999/xlink"
   xmlns:sodipodi="http://sodipodi.sourceforge.net/DTD/sodipodi-0.dtd"
   xmlns:inkscape="http://www.inkscape.org/namespaces/inkscape"
   version="1.1"
   id="svg30"
   width="426.66666"
   height="426.66666"
   viewBox="0 0 426.66666 426.66666"
   sodipodi:docname="Button gear.svg"
   inkscape:version="0.92.4 (5da689c313, 2019-01-14)"
   inkscape:export-filename="E:\SolarPower\WpfApp2\Button base.png"
   inkscape:export-xdpi="13.651007"
   inkscape:export-ydpi="13.651007">
  <metadata
     id="metadata36">
    <rdf:RDF>
      <cc:Work
         rdf:about="">
        <dc:format>image/svg+xml</dc:format>
        <dc:type
           rdf:resource="http://purl.org/dc/dcmitype/StillImage" />
        <dc:title></dc:title>
      </cc:Work>
    </rdf:RDF>
  </metadata>
  <defs
     id="defs34">
    <linearGradient
       id="linearGradient974"
       inkscape:collect="always">
      <stop
         id="stop968"
         offset="0"
         style="stop-color:#02a43c;stop-opacity:1" />
      <stop
         style="stop-color:#58cb22;stop-opacity:1"
         offset="0.53799504"
         id="stop970" />
      <stop
         id="stop972"
         offset="1"
         style="stop-color:#9feb0d;stop-opacity:1" />
    </linearGradient>
    <linearGradient
       inkscape:collect="always"
       id="linearGradient867-8-3-4">
      <stop
         style="stop-color:#06a53b;stop-opacity:1"
         offset="0"
         id="stop881" />
      <stop
         id="stop900"
         offset="0.4354378"
         style="stop-color:#7fdc17;stop-opacity:1" />
      <stop
         style="stop-color:#ccff00;stop-opacity:1"
         offset="1"
         id="stop883" />
    </linearGradient>
    <linearGradient
       inkscape:collect="always"
       xlink:href="#linearGradient867-8-3-4"
       id="linearGradient869"
       x1="405.8757"
       y1="197.06215"
       x2="208.81354"
       y2="202.48586"
       gradientUnits="userSpaceOnUse"
       spreadMethod="reflect" />
    <linearGradient
       gradientTransform="matrix(1,0,0,0.90359462,9.9999999e-7,2.2957551)"
       inkscape:collect="always"
       xlink:href="#linearGradient867-8-3-4"
       id="linearGradient869-7"
       x1="212.42938"
       y1="36.998375"
       x2="208.81354"
       y2="202.48586"
       gradientUnits="userSpaceOnUse"
       spreadMethod="pad" />
    <linearGradient
       gradientTransform="matrix(1,0,0,0.88189443,0,2.8520206)"
       inkscape:collect="always"
       xlink:href="#linearGradient974"
       id="linearGradient869-7-1"
       x1="209.71751"
       y1="25.99399"
       x2="207.00563"
       y2="396.56317"
       gradientUnits="userSpaceOnUse"
       spreadMethod="pad" />
    <filter
       style="color-interpolation-filters:sRGB;"
       inkscape:label="Drop Shadow"
       id="filter1008">
      <feFlood
         flood-opacity="0.498039"
         flood-color="rgb(0,0,0)"
         result="flood"
         id="feFlood998" />
      <feComposite
         in="flood"
         in2="SourceGraphic"
         operator="in"
         result="composite1"
         id="feComposite1000" />
      <feGaussianBlur
         in="composite1"
         stdDeviation="3"
         result="blur"
         id="feGaussianBlur1002" />
      <feOffset
         dx="6"
         dy="6"
         result="offset"
         id="feOffset1004" />
      <feComposite
         in="SourceGraphic"
         in2="offset"
         operator="over"
         result="composite2"
         id="feComposite1006" />
    </filter>
    <filter
       inkscape:label="Button"
       inkscape:menu="Bevels"
       inkscape:menu-tooltip="Soft bevel, slightly depressed middle"
       style="color-interpolation-filters:sRGB;"
       id="filter1332">
      <feGaussianBlur
         stdDeviation="2.3"
         in="SourceAlpha"
         result="result0"
         id="feGaussianBlur1306" />
      <feMorphology
         in="SourceAlpha"
         radius="6.6"
         result="result1"
         id="feMorphology1308" />
      <feGaussianBlur
         stdDeviation="8.9"
         in="result1"
         id="feGaussianBlur1310" />
      <feColorMatrix
         values="1 0 0 0 0 0 1 0 0 0 0 0 1 0 0 0 0 0 0.3 0"
         result="result91"
         id="feColorMatrix1312" />
      <feComposite
         in="result0"
         operator="out"
         result="result2"
         in2="result91"
         id="feComposite1314" />
      <feGaussianBlur
         stdDeviation="1.7"
         result="result4"
         id="feGaussianBlur1316" />
      <feDiffuseLighting
         surfaceScale="10"
         id="feDiffuseLighting1320">
        <feDistantLight
           azimuth="225"
           elevation="45"
           id="feDistantLight1318" />
      </feDiffuseLighting>
      <feBlend
         in2="SourceGraphic"
         mode="multiply"
         id="feBlend1322" />
      <feComposite
         in2="SourceAlpha"
         operator="in"
         result="result3"
         id="feComposite1324" />
      <feSpecularLighting
         in="result4"
         surfaceScale="5"
         specularExponent="17.9"
         id="feSpecularLighting1328">
        <feDistantLight
           azimuth="225"
           elevation="45"
           id="feDistantLight1326" />
      </feSpecularLighting>
      <feComposite
         in2="result3"
         operator="atop"
         id="feComposite1330" />
    </filter>
    <filter
       inkscape:label="Button"
       inkscape:menu="Bevels"
       inkscape:menu-tooltip="Soft bevel, slightly depressed middle"
       style="color-interpolation-filters:sRGB;"
       id="filter5684">
      <feGaussianBlur
         stdDeviation="2.3"
         in="SourceAlpha"
         result="result0"
         id="feGaussianBlur5658" />
      <feMorphology
         in="SourceAlpha"
         radius="6.6"
         result="result1"
         id="feMorphology5660" />
      <feGaussianBlur
         stdDeviation="8.9"
         in="result1"
         id="feGaussianBlur5662" />
      <feColorMatrix
         values="1 0 0 0 0 0 1 0 0 0 0 0 1 0 0 0 0 0 0.3 0"
         result="result91"
         id="feColorMatrix5664" />
      <feComposite
         in="result0"
         operator="out"
         result="result2"
         in2="result91"
         id="feComposite5666" />
      <feGaussianBlur
         stdDeviation="1.7"
         result="result4"
         id="feGaussianBlur5668" />
      <feDiffuseLighting
         surfaceScale="10"
         id="feDiffuseLighting5672">
        <feDistantLight
           azimuth="225"
           elevation="45"
           id="feDistantLight5670" />
      </feDiffuseLighting>
      <feBlend
         in2="SourceGraphic"
         mode="multiply"
         id="feBlend5674" />
      <feComposite
         in2="SourceAlpha"
         operator="in"
         result="result3"
         id="feComposite5676" />
      <feSpecularLighting
         in="result4"
         surfaceScale="5"
         specularExponent="17.9"
         id="feSpecularLighting5680">
        <feDistantLight
           azimuth="225"
           elevation="45"
           id="feDistantLight5678" />
      </feSpecularLighting>
      <feComposite
         in2="result3"
         operator="atop"
         id="feComposite5682" />
    </filter>
    <filter
       inkscape:label="Button"
       inkscape:menu="Bevels"
       inkscape:menu-tooltip="Soft bevel, slightly depressed middle"
       style="color-interpolation-filters:sRGB;"
       id="filter5712">
      <feGaussianBlur
         stdDeviation="2.3"
         in="SourceAlpha"
         result="result0"
         id="feGaussianBlur5686" />
      <feMorphology
         in="SourceAlpha"
         radius="6.6"
         result="result1"
         id="feMorphology5688" />
      <feGaussianBlur
         stdDeviation="8.9"
         in="result1"
         id="feGaussianBlur5690" />
      <feColorMatrix
         values="1 0 0 0 0 0 1 0 0 0 0 0 1 0 0 0 0 0 0.3 0"
         result="result91"
         id="feColorMatrix5692" />
      <feComposite
         in="result0"
         operator="out"
         result="result2"
         in2="result91"
         id="feComposite5694" />
      <feGaussianBlur
         stdDeviation="1.7"
         result="result4"
         id="feGaussianBlur5696" />
      <feDiffuseLighting
         surfaceScale="10"
         id="feDiffuseLighting5700">
        <feDistantLight
           azimuth="225"
           elevation="45"
           id="feDistantLight5698" />
      </feDiffuseLighting>
      <feBlend
         in2="SourceGraphic"
         mode="multiply"
         id="feBlend5702" />
      <feComposite
         in2="SourceAlpha"
         operator="in"
         result="result3"
         id="feComposite5704" />
      <feSpecularLighting
         in="result4"
         surfaceScale="5"
         specularExponent="17.9"
         id="feSpecularLighting5708">
        <feDistantLight
           azimuth="225"
           elevation="45"
           id="feDistantLight5706" />
      </feSpecularLighting>
      <feComposite
         in2="result3"
         operator="atop"
         id="feComposite5710" />
    </filter>
  </defs>
  <sodipodi:namedview
     pagecolor="#ffffff"
     bordercolor="#666666"
     borderopacity="1"
     objecttolerance="10"
     gridtolerance="10"
     guidetolerance="10"
     inkscape:pageopacity="0"
     inkscape:pageshadow="2"
     inkscape:window-width="1920"
     inkscape:window-height="1018"
     id="namedview32"
     showgrid="false"
     inkscape:zoom="2.2125"
     inkscape:cx="214.97583"
     inkscape:cy="160.28853"
     inkscape:window-x="-8"
     inkscape:window-y="-8"
     inkscape:window-maximized="1"
     inkscape:current-layer="svg30" />
  <path
     style="fill:url(#linearGradient869);stroke:none;stroke-width:9.99212551;stroke-miterlimit:4;stroke-dasharray:none;stroke-opacity:1;fill-opacity:1"
     d="m 38.216115,37.764137 c 11.92084,-12.247685 36.3614,-13.950641 36.3614,-13.950641 l 280.225045,0.33444 c 0,0 20.61787,2.018955 28.22425,8.192473 10.66403,8.655172 19.39913,21.528357 19.38114,36.360331 l -0.33875,279.7725 c 0,0 0.90802,23.04864 -10.00281,35.45753 -10.77514,12.25456 -30.04422,13.703 -30.04422,13.703 l -293.783135,1.05564 c 0,0 -20.0758,2.37869 -30.47486,-9.78689 -13.6107,-15.92278 -13.20587,-30.9357 -13.20587,-30.9357 L 23.873145,73.671419 c -0.031,-12.843946 2.42213,-23.659596 14.34297,-35.907282 z"
     id="rect40-0"
     inkscape:connector-curvature="0"
     sodipodi:nodetypes="zccaccsccscsz" />
  <path
     style="fill:url(#linearGradient869-7);fill-opacity:1;stroke:none;stroke-width:9.49827385;stroke-miterlimit:4;stroke-dasharray:none;stroke-opacity:1"
     d="M 38.216116,36.419221 C 50.136957,25.352286 74.577517,23.813499 74.577517,23.813499 l 280.225043,0.302194 c 0,0 20.61787,1.824324 28.22425,7.40268 10.66403,7.820771 19.39913,19.452905 19.38114,32.855003 L 402.0692,317.17429 c 0,0 0.90802,20.82662 -10.00281,32.03923 -10.77514,11.07315 -30.04422,12.38195 -30.04422,12.38195 l -293.783133,0.95387 c 0,0 -20.0758,2.14937 -30.474861,-8.84338 -13.6107,-14.38774 -13.20587,-27.95333 -13.20587,-27.95333 L 23.873146,68.864846 c -0.031,-11.605712 2.42213,-21.378681 14.34297,-32.445625 z"
     id="rect40-0-8"
     inkscape:connector-curvature="0"
     sodipodi:nodetypes="zccaccsccscsz" />
  <path
     style="fill:url(#linearGradient869-7-1);fill-opacity:1;stroke:none;stroke-width:9.38352871;stroke-miterlimit:4;stroke-dasharray:none;stroke-opacity:1"
     d="M 38.21612,36.155992 C 50.13696,25.354839 74.57751,23.853003 74.57751,23.853003 l 280.22505,0.294933 c 0,0 20.61787,1.780518 28.22425,7.224902 10.66403,7.632951 19.39913,18.98574 19.38114,32.065983 L 402.0692,310.16861 c 0,0 0.90802,20.32646 -10.00281,31.2698 -10.77514,10.80722 -30.04422,12.08459 -30.04422,12.08459 l -293.78314,0.93096 c 0,0 -20.07579,2.09776 -30.47485,-8.63101 -13.6107,-14.0422 -13.20587,-27.28201 -13.20587,-27.28201 L 23.87315,67.822427 c -0.031,-11.327004 2.42213,-20.865263 14.34297,-31.666435 z"
     id="rect40-0-8-3"
     inkscape:connector-curvature="0"
     sodipodi:nodetypes="zccaccsccscsz" />
  <path
     style="fill:none;stroke:#707070;stroke-width:14.292;stroke-miterlimit:4;stroke-dasharray:none;stroke-opacity:1;filter:url(#filter1332)"
     d="m 38.216117,37.76414 c 11.92084,-12.247685 36.3614,-13.950641 36.3614,-13.950641 l 280.225043,0.33444 c 0,0 20.61787,2.018955 28.22425,8.192473 10.66403,8.655172 19.39913,21.528357 19.38113,36.360331 l -0.33875,279.772497 c 0,0 0.90803,23.04864 -10.0028,35.45753 -10.77514,12.25456 -30.04422,13.703 -30.04422,13.703 l -293.783133,1.05564 c 0,0 -20.0758,2.37869 -30.47487,-9.78689 -13.61069,-15.92278 -13.20586,-30.9357 -13.20586,-30.9357 L 23.873147,73.671422 c -0.031,-12.843946 2.42213,-23.659596 14.34297,-35.907282 z"
     id="rect40"
     inkscape:connector-curvature="0"
     sodipodi:nodetypes="zccaccsccscsz" />
  <ellipse
     style="fill:none;fill-opacity:1;stroke:#cacaca;stroke-width:13;stroke-miterlimit:4;stroke-dasharray:none;stroke-opacity:1;filter:url(#filter5712)"
     id="path1334-5"
     cx="-297.01401"
     cy="57.832432"
     rx="63.968094"
     ry="65.696953"
     transform="rotate(-5.5343682,1375.6932,-5191.7387)" />
  <path
     id="path1334-9"
     style="fill:none;fill-opacity:1;stroke:#cacaca;stroke-width:12.72502041;stroke-linecap:round;stroke-miterlimit:4;stroke-dasharray:none;stroke-opacity:1;filter:url(#filter5684)"
     d="m 312.95266,222.85129 a 100.87109,98.216583 84.465632 0 1 -5.77458,15.5702 m -39.8747,43.84204 a 100.87109,98.216583 84.465632 0 1 -17.88814,8.09502 m -58.40955,0.75803 a 100.87109,98.216583 84.465632 0 1 -17.73157,-7.39511 m -41.56495,-42.55508 a 100.87109,98.216583 84.465632 0 1 -6.22602,-14.88212 m -1.3472,-60.21573 a 100.87109,98.216583 84.465632 0 1 5.77373,-15.569 m 39.87603,-43.84488 a 100.87109,98.216583 84.465632 0 1 17.88724,-8.094721 m -17.88724,8.094721 -40.40248,-18.339061 c -7.26685,6.427346 -13.84638,13.629941 -19.62857,21.487341 l 20.20381,40.64108 M 246.00277,97.759219 230.00213,55.158238 c -8.32146,-0.80022 -16.69309,-0.813411 -25.00906,-0.03941 -0.96025,0.117738 -1.91921,0.245971 -2.87669,0.384698 v 0 l -14.4647,43.066501 m 58.4296,-0.769059 a 100.87109,98.216583 84.465632 0 1 17.73515,7.396542 m 41.56271,42.55281 a 100.87109,98.216583 84.465632 0 1 6.22805,14.88741 m -187.4534,3.34309 -41.311448,15.51548 c -0.76151,8.64246 -0.73699,17.34304 0.0732,25.98909 0.17537,1.51436 0.37477,3.02582 0.59824,4.53375 l 42.024288,14.11588 m 6.17014,14.88923 -18.6859,41.16556 c 6.1498,7.73397 13.08339,14.77577 20.6828,21.00555 l 39.54409,-19.65949 m 17.71519,7.4042 16.00101,42.60084 c 8.32147,0.80088 16.69315,0.81473 25.00924,0.0414 0.9596,-0.1177 1.91791,-0.24592 2.87475,-0.38452 l 14.46622,-43.0687 m 17.8662,-8.08455 40.40249,18.33904 c 7.26681,-6.42673 13.84641,-13.62866 19.62876,-21.48539 l -20.20381,-40.64108 m 5.80453,-15.53718 41.31141,-15.51705 c 0.76151,-8.64245 0.73699,-17.34304 -0.0732,-25.98908 -0.17531,-1.51372 -0.37464,-3.02453 -0.59805,-4.53181 L 311.43209,162.5669 m -6.17259,-14.89004 18.68591,-41.16557 c -6.1498,-7.73397 -13.08339,-14.775762 -20.6828,-21.00555 l -39.54409,19.65948"
     inkscape:connector-curvature="0" />
  <path
     style="fill:#ffffff;fill-opacity:1;stroke:#ffffff;stroke-width:8.40678024;stroke-linecap:round;stroke-miterlimit:4;stroke-dasharray:none;stroke-opacity:1"
     d="m 220.08461,302.67378 -17.65548,-0.24443 -2.56594,-6.9872 c -2.93131,-7.98211 -4.96744,-10.62952 -8.75831,-11.38769 -1.46672,-0.29335 -5.7667,-1.96561 -9.55551,-3.71615 -3.78881,-1.75054 -7.58976,-3.1828 -8.44656,-3.1828 -0.85679,0 -9.85035,4.01166 -19.98569,8.91481 l -18.42787,8.91481 -3.34697,-2.86314 c -1.84083,-1.57472 -4.95489,-4.68983 -6.92012,-6.92246 l -3.57316,-4.05932 8.06344,-17.58557 c 10.98292,-23.95266 10.45105,-21.99172 7.65874,-28.23666 l -2.33731,-5.22736 10.1605,0.25561 10.1605,0.25561 2.91788,4.46258 c 1.60484,2.45441 5.27067,6.86817 8.14629,9.80835 13.26981,13.56769 27.23926,20.44057 45.24736,22.2614 11.74576,1.18763 20.93135,-0.10527 32.94021,-4.63642 10.8383,-4.08948 26.57524,-16.90517 32.43976,-26.41798 l 3.07564,-4.98899 11.52543,-0.0185 c 9.44094,-0.0151 11.52542,0.2171 11.52542,1.2841 0,0.71642 -0.40678,1.55399 -0.90395,1.86126 -2.34947,1.45205 -0.4578,6.93474 8.59991,24.92545 l 9.50387,18.87687 -6.38983,7.25138 c -3.51441,3.98826 -6.48653,7.25138 -6.60472,7.25138 -0.11819,0 -8.71176,-3.8644 -19.09683,-8.58757 -10.38507,-4.72316 -19.46425,-8.58757 -20.17595,-8.58757 -0.71171,0 -4.95063,1.83051 -9.41983,4.0678 -4.46921,2.23729 -8.83498,4.06779 -9.70174,4.06779 -2.63065,0 -4.88575,3.38432 -7.73183,11.60348 l -2.71187,7.83155 z"
     id="path5795"
     inkscape:connector-curvature="0" />
  <path
     style="fill:#ffffff;fill-opacity:1;stroke:#ffffff;stroke-width:8.40678024;stroke-linecap:round;stroke-miterlimit:4;stroke-dasharray:none;stroke-opacity:1"
     d="m 131.97738,224.57132 c 0,-2.69475 -4.31307,-4.7614 -22.64675,-10.85143 l -19.709517,-6.54704 -0.290793,-6.3646 c -0.159936,-3.50053 -0.16921,-8.23802 -0.02061,-10.52775 l 0.270182,-4.16314 12.837158,-4.7763 c 29.2301,-10.87558 26.63429,-9.55455 28.36833,-14.43688 l 1.54086,-4.33837 9.54308,0.465 c 5.2487,0.25576 9.6618,0.56393 9.80689,0.68483 0.14508,0.1209 -0.51229,2.60959 -1.46085,5.53041 -3.04539,9.37751 -3.94851,14.64451 -3.97429,23.17794 -0.0336,11.1124 2.19833,23.84112 5.19723,29.64034 0.73152,1.41461 1.33004,2.79561 1.33004,3.06889 0,0.27328 -4.67796,0.49687 -10.39548,0.49687 -7.34102,0 -10.39548,-0.31109 -10.39548,-1.05877 z"
     id="path6340"
     inkscape:connector-curvature="0" />
  <path
     style="fill:#ffffff;fill-opacity:1;stroke:#ffffff;stroke-width:8.40678024;stroke-linecap:round;stroke-miterlimit:4;stroke-dasharray:none;stroke-opacity:1"
     d="m 281.6414,164.4237 c -0.96163,-2.33775 -3.54777,-6.9125 -5.74698,-10.1661 -17.15811,-25.38442 -47.58142,-37.45195 -76.25181,-30.24558 -6.8687,1.72647 -20.59431,8.36524 -25.63008,12.39669 -6.02462,4.82309 -13.04568,12.55398 -16.17379,17.80895 l -2.95952,4.97175 -6.70516,-0.24516 c -3.68783,-0.13483 -8.4317,-0.4645 -10.54192,-0.7326 l -3.83677,-0.48744 1.35089,-2.61234 c 0.74299,-1.43679 1.35089,-3.38351 1.35089,-4.32605 0,-0.94253 -4.21824,-10.42036 -9.37387,-21.06184 l -9.37387,-19.34813 4.49156,-5.19774 4.49156,-5.19774 h 5.76644 c 5.21432,0 7.23028,0.64912 21.05563,6.77966 8.40905,3.72881 15.75017,6.77966 16.31358,6.77966 0.56342,0 3.76,-1.36384 7.10352,-3.03077 3.34352,-1.66692 8.03127,-3.7637 10.41721,-4.6595 2.38595,-0.8958 5.08856,-2.5828 6.00581,-3.74889 l 1.66771,-2.12016 h 22.21099 c 20.96313,0 22.26307,0.09733 23.13813,1.7324 0.50993,0.95283 3.06662,2.44118 5.68152,3.30747 2.61491,0.86628 7.33466,2.73077 10.48835,4.1433 3.15369,1.41253 6.51588,2.56824 7.47152,2.56824 0.95565,0 6.60639,-2.44068 12.55721,-5.42373 l 10.81966,-5.42373 h 11.12988 11.12987 l 3.23242,3.38984 3.23241,3.38983 -8.90761,19.43502 c -4.89919,10.68927 -8.91529,19.74385 -8.92467,20.12129 -0.037,1.48909 8.33711,20.13426 9.32522,20.7629 0.57927,0.36853 -4.6417,0.67475 -11.60215,0.6805 l -12.65537,0.0104 -1.74841,-4.25045 z"
     id="path6342"
     inkscape:connector-curvature="0" />
  <path
     style="fill:#ffffff;fill-opacity:1;stroke:#ffffff;stroke-width:8.40678024;stroke-linecap:round;stroke-miterlimit:4;stroke-dasharray:none;stroke-opacity:1"
     d="m 196.15817,94.60804 c 0,-1.226237 10.68642,-31.829641 11.34585,-32.491854 0.30336,-0.304642 4.42009,-0.553895 9.14829,-0.553895 h 8.59672 l 6.24553,16.631544 c 3.43504,9.147349 6.24553,16.774468 6.24553,16.949153 0,0.174685 -9.35593,0.317608 -20.79096,0.317608 -12.42237,0 -20.79096,-0.343163 -20.79096,-0.852556 z"
     id="path6344"
     inkscape:connector-curvature="0" />
  <path
     style="fill:#ffffff;fill-opacity:1;stroke:#ffffff;stroke-width:8.40678024;stroke-linecap:round;stroke-miterlimit:4;stroke-dasharray:none;stroke-opacity:1"
     d="m 291.73502,226.76281 c -9.77469,-0.26318 -10.56966,-0.41384 -9.79747,-1.85669 1.42601,-2.66452 4.36073,-12.17001 5.07913,-16.45117 1.12488,-6.70354 1.321,-21.83426 0.34565,-26.66667 -0.50174,-2.48588 -1.10009,-5.43503 -1.32967,-6.55367 -0.41461,-2.02028 -0.34405,-2.0339 10.53379,-2.0339 8.48509,0 11.51106,-0.33072 13.4374,-1.46864 2.40654,-1.42157 3.04098,-1.28457 19.79846,4.2753 19.93767,6.615 18.53581,5.14935 18.04333,18.86435 l -0.27504,7.65971 -18.53107,6.91991 c -10.19209,3.80595 -19.347,7.52349 -20.34425,8.26119 -0.99724,0.73771 -2.31771,3.22773 -2.93438,5.53338 -0.64481,2.41088 -1.6028,4.1095 -2.25463,3.99771 -0.62337,-0.10691 -5.92044,-0.32327 -11.77125,-0.48081 z"
     id="path6346"
     inkscape:connector-curvature="0" />
  <path
     style="fill:#ffffff;fill-opacity:1;stroke:#ffffff;stroke-width:8.40678024;stroke-linecap:round;stroke-miterlimit:4;stroke-dasharray:none;stroke-opacity:1"
     d="m 212.62991,327.0161 c -0.85448,-0.54224 -8.33615,-18.31427 -8.33615,-19.80177 0,-0.64327 29.55819,-0.0868 30.60448,0.57618 0.99682,0.63162 0.6718,2.46744 -1.73897,9.82235 l -2.96492,9.04554 -4.58871,0.55143 c -6.31977,0.75946 -11.59786,0.68066 -12.97573,-0.19373 z"
     id="path6348"
     inkscape:connector-curvature="0" />
  <path
     style="fill:#cacaca;fill-opacity:1;stroke:#cacaca;stroke-width:8.40678024;stroke-linecap:round;stroke-miterlimit:4;stroke-dasharray:none;stroke-opacity:1"
     d="m 297.15496,96.616092 c 1.60473,-0.199694 4.45219,-0.202975 6.32768,-0.0073 1.8755,0.195684 0.56254,0.35907 -2.91769,0.363081 -3.48022,0.004 -5.01472,-0.156095 -3.40999,-0.35579 z"
     id="path6350"
     inkscape:connector-curvature="0" />
</svg>
